<?xml version="1.0" encoding="UTF-8"?>
<svg width="34px" height="34px" viewBox="0 0 34 34" version="1.1" xmlns="http://www.w3.org/2000/svg" xmlns:xlink="http://www.w3.org/1999/xlink">
    <!-- Generator: Sketch 47.1 (45422) - http://www.bohemiancoding.com/sketch -->
    <title>add-new-dashboard-icon-b</title>
    <desc>Created with Sketch.</desc>
    <defs></defs>
    <g id="Page-1" stroke="none" stroke-width="1" fill="none" fill-rule="evenodd">
        <g id="add-new-dashboard-icon-b" fill="#60B3E1">
            <g id="add-new-dashboard" transform="translate(0.000000, 8.000000)">
                <path d="M3,0 L31,0 C32.6568542,-3.04359188e-16 34,1.34314575 34,3 L34,15 C34,16.6568542 32.6568542,18 31,18 L3,18 C1.34314575,18 2.02906125e-16,16.6568542 0,15 L0,3 L0,3 C-2.02906125e-16,1.34314575 1.34314575,-1.39730022e-16 3,-4.4408921e-16 L3,0 Z M18,4 L16,4 L16,8 L12,8 L12,10 L16,10 L16,14 L18,14 L18,10 L22,10 L22,8 L18,8 L18,4 Z" id="Combined-Shape"></path>
            </g>
        </g>
    </g>
</svg>