<?xml version="1.0" encoding="UTF-8"?>
<svg width="34px" height="34px" viewBox="0 0 34 34" version="1.1" xmlns="http://www.w3.org/2000/svg" xmlns:xlink="http://www.w3.org/1999/xlink">
    <!-- Generator: Sketch 46.2 (44496) - http://www.bohemiancoding.com/sketch -->
    <title>logo</title>
    <desc>Created with Sketch.</desc>
    <defs></defs>
    <g id="Page-1" stroke="none" stroke-width="1" fill="none" fill-rule="evenodd">
        <g id="logo" fill="#757575">
            <g id="il-logo" transform="translate(1.000000, 1.000000)">
                <path d="M15.874809,1.8918249 C8.01474141,1.8918249 1.62006397,8.28607012 1.62006397,16.145459 C1.62006397,24.0067538 8.01474141,30.4018159 15.874809,30.4018159 C23.7354212,30.4018159 30.1300987,24.0067538 30.1300987,16.145459 C30.1300987,8.28607012 23.7354212,1.8918249 15.874809,1.8918249 M15.874809,31.6469565 C7.32806098,31.6469565 0.374945175,24.693174 0.374945175,16.145459 C0.374945175,7.59937763 7.32806098,0.646956522 15.874809,0.646956522 C24.4212848,0.646956522 31.3749452,7.59937763 31.3749452,16.145459 C31.3749452,24.693174 24.4212848,31.6469565 15.874809,31.6469565" id="Fill-7"></path>
                <polygon id="Fill-12" points="1.0060307 16.7084239 30.9846491 16.7084239 30.9846491 15.5211957 1.0060307 15.5211957"></polygon>
                <path d="M1.68190789,19.721712 L1.56074561,19.7200815 L1.56074561,18.6708967 L1.68190789,18.6725272 C3.09555921,18.6725272 4.24577851,17.5317663 4.24577851,16.1298641 C4.24577851,14.727962 3.09555921,13.5874728 1.68190789,13.5874728 C1.62160088,13.5874728 1.56211623,13.590462 1.50372807,13.5939946 L1.43821272,12.5469837 C1.51825658,12.5420924 1.59967105,12.538288 1.68190789,12.538288 C3.67916667,12.538288 5.30416667,14.1494293 5.30416667,16.1298641 C5.30416667,18.1102989 3.67916667,19.721712 1.68190789,19.721712 L1.68190789,19.721712 Z M30.3047149,19.721712 C28.3069079,19.721712 26.682182,18.1102989 26.682182,16.1298641 C26.682182,14.1494293 28.3069079,12.538288 30.3047149,12.538288 C30.3864035,12.538288 30.467818,12.5420924 30.548136,12.5469837 L30.4828947,13.5939946 C30.4239583,13.590462 30.3644737,13.5874728 30.3047149,13.5874728 C28.8905154,13.5874728 27.7405702,14.727962 27.7405702,16.1298641 C27.7405702,17.5317663 28.8905154,18.6725272 30.3047149,18.6725272 L30.4256031,18.6708967 L30.4256031,19.7200815 L30.3047149,19.721712 Z M3.12461623,21.7891033 C2.73371711,21.7891033 2.34692982,21.7505163 1.97467105,21.6744293 L2.18903509,20.646712 C2.4908443,20.7086685 2.8058114,20.7399185 3.12461623,20.7399185 C5.68958333,20.7399185 7.77648026,18.6719837 7.77648026,16.1298641 C7.77648026,13.5874728 5.68958333,11.5189946 3.12461623,11.5189946 C2.79265351,11.5189946 2.4620614,11.5537772 2.14216009,11.6225272 L1.91820175,10.596712 C2.31184211,10.5124728 2.71754386,10.4698098 3.12461623,10.4698098 C6.27319079,10.4698098 8.83514254,13.0089402 8.83514254,16.1298641 C8.83514254,19.2505163 6.27319079,21.7891033 3.12461623,21.7891033 L3.12461623,21.7891033 Z M28.8611842,21.7891033 C25.7126096,21.7891033 23.1512061,19.2505163 23.1512061,16.1298641 C23.1512061,13.0089402 25.7126096,10.4698098 28.8611842,10.4698098 C29.2685307,10.4698098 29.6745066,10.5124728 30.0673246,10.5969837 L29.8436404,11.6222554 C29.5240132,11.5537772 29.1936952,11.5189946 28.8611842,11.5189946 C26.295943,11.5189946 24.2095943,13.5874728 24.2095943,16.1298641 C24.2095943,18.6719837 26.295943,20.7399185 28.8611842,20.7399185 C29.1797149,20.7399185 29.4949561,20.7086685 29.7992325,20.646712 L30.0122259,21.6744293 C29.6380482,21.7505163 29.2509868,21.7891033 28.8611842,21.7891033 L28.8611842,21.7891033 Z M14.4247807,9.839375 C15.1287281,10.8668207 15.6635417,12.014375 15.9927632,13.2437228 C16.3217105,12.0146467 16.8570724,10.8668207 17.5604715,9.83964674 C17.1183114,9.02769022 16.5925439,8.26328804 15.9927632,7.56002717 C15.3935307,8.26328804 14.867489,9.02769022 14.4247807,9.839375 L14.4247807,9.839375 Z M18.1007675,10.951875 C17.1936952,12.4681793 16.6745066,14.2355707 16.6745066,16.1162772 C16.6745066,17.9934511 17.1953399,19.7608424 18.1051535,21.277962 C18.7904605,19.677962 19.1657346,17.9293207 19.1657346,16.1162772 C19.1657346,14.3040489 18.7888158,12.5537772 18.1007675,10.951875 L18.1007675,10.951875 Z M13.8844846,10.9516033 C13.1961623,12.5535054 12.8192434,14.3040489 12.8192434,16.1162772 C12.8192434,17.9295924 13.1945175,19.6782337 13.8803728,21.2785054 C14.7896382,19.7613859 15.3110197,17.9934511 15.3110197,16.1162772 C15.3110197,14.2355707 14.7912829,12.4676359 13.8844846,10.9516033 L13.8844846,10.9516033 Z M14.4198465,22.390462 C14.8631031,23.2056793 15.3907895,23.9725272 15.9927632,24.677962 C16.5947368,23.9725272 17.1221491,23.2054076 17.5654057,22.3901902 C16.8598136,21.3611141 16.322807,20.2108424 15.9927632,18.9809511 C15.6627193,20.2108424 15.1254386,21.3613859 14.4198465,22.390462 L14.4198465,22.390462 Z M9.65148026,29.8994293 L9.36940789,28.8880163 C11.6591557,28.2605707 13.6747807,27.0548641 15.2729167,25.457038 C14.6912281,24.7880163 14.1723136,24.0670924 13.7233004,23.302962 C11.807182,25.565462 9.00427632,27.0738859 5.83185307,27.2801359 L5.76277412,26.233125 C8.7901864,26.0366576 11.4467105,24.5301359 13.1838268,22.295625 C12.6827303,21.2627446 12.3038925,20.1651902 12.0634868,19.0247011 C10.8798246,22.0839402 7.88558114,24.2616576 4.38777412,24.2616576 C3.96644737,24.2616576 3.54512061,24.2295924 3.13530702,24.1662772 L3.29841009,23.1295924 C3.65422149,23.1844837 4.02072368,23.2124728 4.38777412,23.2124728 C8.33514254,23.2124728 11.5462171,20.0290489 11.5462171,16.1162772 C11.5462171,12.202962 8.33514254,9.01899457 4.38777412,9.01899457 C4.02072368,9.01899457 3.65422149,9.0469837 3.29841009,9.101875 L3.13530702,8.06519022 C3.54512061,8.001875 3.96644737,7.96980978 4.38777412,7.96980978 C7.88640351,7.96980978 10.8811952,10.1488859 12.0643092,13.2097554 C12.3055373,12.0679076 12.6857456,10.9692663 13.1890351,9.93421196 C11.4368421,7.67850543 8.74660088,6.16872283 5.67889254,5.99399457 L5.73947368,4.94671196 C8.95548246,5.12986413 11.7956689,6.64236413 13.729057,8.926875 C14.1772478,8.16600543 14.6945175,7.44752717 15.273739,6.78040761 C13.6931469,5.19807065 11.7049342,3.99861413 9.44835526,3.36519022 L9.73700658,2.35567935 C12.157511,3.03529891 14.2923794,4.31845109 15.9930373,6.01084239 C17.6939693,4.31845109 19.8296601,3.03529891 22.2507127,2.35567935 L22.5390899,3.36519022 C20.2819627,3.99861413 18.2929276,5.19834239 16.7120614,6.78040761 C17.2912829,7.44725543 17.8085526,8.16654891 18.2559211,8.926875 C20.1898575,6.64236413 23.0300439,5.12986413 26.2463268,4.94671196 L26.3069079,5.99399457 C23.2389254,6.16872283 20.5486842,7.67904891 18.7962171,9.9344837 C19.2995066,10.9698098 19.6802632,12.0700815 19.9212171,13.2122011 C21.1032346,10.1497011 24.0988487,7.96980978 27.5985746,7.96980978 C28.0196272,7.96980978 28.4404057,8.001875 28.8504934,8.06519022 L28.6871162,9.101875 C28.3310307,9.0469837 27.9648026,9.01899457 27.5985746,9.01899457 C23.6512061,9.01899457 20.4398575,12.202962 20.4398575,16.1162772 C20.4398575,20.0290489 23.6512061,23.2124728 27.5985746,23.2124728 C27.9648026,23.2124728 28.3310307,23.1844837 28.6871162,23.1295924 L28.8504934,24.1662772 C28.4404057,24.2295924 28.0196272,24.2616576 27.5985746,24.2616576 C24.0999452,24.2616576 21.1048794,22.0828533 19.9217654,19.0219837 C19.6819079,20.1635598 19.3027961,21.2616576 18.8016996,22.2953533 C20.5385417,24.5301359 23.1950658,26.0363859 26.2227522,26.233125 L26.1536732,27.2801359 C22.9815241,27.0738859 20.1780702,25.5651902 18.2619518,23.3026902 C17.8132127,24.0668207 17.2940241,24.7880163 16.7126096,25.457038 C18.3107456,27.0545924 20.3263706,28.2605707 22.6163925,28.8880163 L22.3340461,29.8994293 C19.8770833,29.2260598 17.7131579,27.9358424 15.9927632,26.2263315 C14.2729167,27.9358424 12.1081689,29.2263315 9.65148026,29.8994293 L9.65148026,29.8994293 Z" id="Fill-10"></path>
            </g>
        </g>
    </g>
</svg>