<?xml version="1.0" encoding="UTF-8"?>
<svg width="34px" height="34px" viewBox="0 0 34 34" version="1.1" xmlns="http://www.w3.org/2000/svg" xmlns:xlink="http://www.w3.org/1999/xlink">
    <!-- Generator: Sketch 47.1 (45422) - http://www.bohemiancoding.com/sketch -->
    <title>logo</title>
    <desc>Created with Sketch.</desc>
    <defs></defs>
    <g id="Page-1" stroke="none" stroke-width="1" fill="none" fill-rule="evenodd">
        <g id="logo" fill="#FFFFFF">
            <g id="il-logo" transform="translate(2.000000, 2.000000)">
                <path d="M14.9807368,1.45377391 C7.38389474,1.45377391 1.20336842,7.58003478 1.20336842,15.1100348 C1.20336842,22.6418609 7.38389474,28.7689043 14.9807368,28.7689043 C22.5781053,28.7689043 28.7586316,22.6418609 28.7586316,15.1100348 C28.7586316,7.58003478 22.5781053,1.45377391 14.9807368,1.45377391 M14.9807368,29.9618609 C6.72021053,29.9618609 -5.26315789e-05,23.299513 -5.26315789e-05,15.1100348 C-5.26315789e-05,6.92212174 6.72021053,0.261078261 14.9807368,0.261078261 C23.241,0.261078261 29.9617895,6.92212174 29.9617895,15.1100348 C29.9617895,23.299513 23.241,29.9618609 14.9807368,29.9618609" id="Fill-7"></path>
                <path d="M1.25463158,18.5728435 L1.13831579,18.5712783 L1.13831579,17.5640609 L1.25463158,17.5656261 C2.61173684,17.5656261 3.71594737,16.4704957 3.71594737,15.1246696 C3.71594737,13.7788435 2.61173684,12.6839739 1.25463158,12.6839739 C1.19673684,12.6839739 1.13963158,12.6868435 1.08357895,12.6902348 L1.02068421,11.6851043 C1.09752632,11.6804087 1.17568421,11.6767565 1.25463158,11.6767565 C3.172,11.6767565 4.732,13.2234522 4.732,15.1246696 C4.732,17.025887 3.172,18.5728435 1.25463158,18.5728435 L1.25463158,18.5728435 Z M28.7325263,18.5728435 C26.8146316,18.5728435 25.2548947,17.025887 25.2548947,15.1246696 C25.2548947,13.2234522 26.8146316,11.6767565 28.7325263,11.6767565 C28.8109474,11.6767565 28.8891053,11.6804087 28.9662105,11.6851043 L28.9035789,12.6902348 C28.847,12.6868435 28.7898947,12.6839739 28.7325263,12.6839739 C27.3748947,12.6839739 26.2709474,13.7788435 26.2709474,15.1246696 C26.2709474,16.4704957 27.3748947,17.5656261 28.7325263,17.5656261 L28.8485789,17.5640609 L28.8485789,18.5712783 L28.7325263,18.5728435 Z M2.63963158,20.5575391 C2.26436842,20.5575391 1.89305263,20.5204957 1.53568421,20.4474522 L1.74147368,19.4608435 C2.03121053,19.5203217 2.33357895,19.5503217 2.63963158,19.5503217 C5.102,19.5503217 7.10542105,17.5651043 7.10542105,15.1246696 C7.10542105,12.6839739 5.102,10.6982348 2.63963158,10.6982348 C2.32094737,10.6982348 2.00357895,10.7316261 1.69647368,10.7976261 L1.48147368,9.81284348 C1.85936842,9.73197391 2.24884211,9.69101739 2.63963158,9.69101739 C5.66226316,9.69101739 8.12173684,12.1285826 8.12173684,15.1246696 C8.12173684,18.1204957 5.66226316,20.5575391 2.63963158,20.5575391 L2.63963158,20.5575391 Z M27.3467368,20.5575391 C24.3241053,20.5575391 21.8651579,18.1204957 21.8651579,15.1246696 C21.8651579,12.1285826 24.3241053,9.69101739 27.3467368,9.69101739 C27.7377895,9.69101739 28.1275263,9.73197391 28.5046316,9.81310435 L28.2898947,10.7973652 C27.9830526,10.7316261 27.6659474,10.6982348 27.3467368,10.6982348 C24.8841053,10.6982348 22.8812105,12.6839739 22.8812105,15.1246696 C22.8812105,17.5651043 24.8841053,19.5503217 27.3467368,19.5503217 C27.6525263,19.5503217 27.9551579,19.5203217 28.2472632,19.4608435 L28.4517368,20.4474522 C28.0925263,20.5204957 27.7209474,20.5575391 27.3467368,20.5575391 L27.3467368,20.5575391 Z M13.4877895,9.0858 C14.1635789,10.0721478 14.677,11.1738 14.9930526,12.3539739 C15.3088421,11.1740609 15.8227895,10.0721478 16.4980526,9.08606087 C16.0735789,8.30658261 15.5688421,7.57275652 14.9930526,6.89762609 C14.4177895,7.57275652 13.9127895,8.30658261 13.4877895,9.0858 L13.4877895,9.0858 Z M17.0167368,10.1538 C16.1459474,11.6094522 15.6475263,13.3061478 15.6475263,15.1116261 C15.6475263,16.913713 16.1475263,18.6104087 17.0209474,20.0668435 C17.6788421,18.5308435 18.0391053,16.8521478 18.0391053,15.1116261 C18.0391053,13.371887 17.6772632,11.6916261 17.0167368,10.1538 L17.0167368,10.1538 Z M12.9691053,10.1535391 C12.3083158,11.6913652 11.9464737,13.371887 11.9464737,15.1116261 C11.9464737,16.8524087 12.3067368,18.5311043 12.9651579,20.0673652 C13.8380526,18.6109304 14.3385789,16.913713 14.3385789,15.1116261 C14.3385789,13.3061478 13.8396316,11.6089304 12.9691053,10.1535391 L12.9691053,10.1535391 Z M13.4830526,21.1348435 C13.9085789,21.9174522 14.4151579,22.6536261 14.9930526,23.3308435 C15.5709474,22.6536261 16.0772632,21.9171913 16.5027895,21.1345826 C15.8254211,20.1466696 15.3098947,19.0424087 14.9930526,17.861713 C14.6762105,19.0424087 14.1604211,20.1469304 13.4830526,21.1348435 L13.4830526,21.1348435 Z M8.90542105,28.3434522 L8.63463158,27.3724957 C10.8327895,26.7701478 12.7677895,25.6126696 14.302,24.0787565 C13.7435789,23.4364957 13.2454211,22.7444087 12.8143684,22.0108435 C10.9748947,24.1828435 8.28410526,25.6309304 5.23857895,25.8289304 L5.17226316,24.8238 C8.07857895,24.6351913 10.6288421,23.1889304 12.2964737,21.0438 C11.8154211,20.0522348 11.4517368,18.9985826 11.2209474,17.903713 C10.0846316,20.8405826 7.21015789,22.9311913 3.85226316,22.9311913 C3.44778947,22.9311913 3.04331579,22.9004087 2.64989474,22.8396261 L2.80647368,21.8444087 C3.14805263,21.8971043 3.49989474,21.9239739 3.85226316,21.9239739 C7.64173684,21.9239739 10.7243684,18.867887 10.7243684,15.1116261 C10.7243684,11.3548435 7.64173684,8.29823478 3.85226316,8.29823478 C3.49989474,8.29823478 3.14805263,8.32510435 2.80647368,8.3778 L2.64989474,7.38258261 C3.04331579,7.3218 3.44778947,7.29101739 3.85226316,7.29101739 C7.21094737,7.29101739 10.0859474,9.38293043 11.2217368,12.3213652 C11.4533158,11.2251913 11.8183158,10.1704957 12.3014737,9.17684348 C10.6193684,7.01136522 8.03673684,5.56197391 5.09173684,5.39423478 L5.14989474,4.38884348 C8.23726316,4.56466957 10.9638421,6.01666957 12.8198947,8.2098 C13.2501579,7.47936522 13.7467368,6.78962609 14.3027895,6.1491913 C12.7854211,4.63014783 10.8767368,3.47866957 8.71042105,2.87058261 L8.98752632,1.90145217 C11.3112105,2.55388696 13.3606842,3.78571304 14.9933158,5.4104087 C16.6262105,3.78571304 18.6764737,2.55388696 21.0006842,1.90145217 L21.2775263,2.87058261 C19.1106842,3.47866957 17.2012105,4.6304087 15.6835789,6.1491913 C16.2396316,6.78936522 16.7362105,7.47988696 17.1656842,8.2098 C19.0222632,6.01666957 21.7488421,4.56466957 24.8364737,4.38884348 L24.8946316,5.39423478 C21.9493684,5.56197391 19.3667368,7.01188696 17.6843684,9.17710435 C18.1675263,10.1710174 18.5330526,11.2272783 18.7643684,12.323713 C19.8991053,9.38371304 22.7748947,7.29101739 26.1346316,7.29101739 C26.5388421,7.29101739 26.9427895,7.3218 27.3364737,7.38258261 L27.1796316,8.3778 C26.8377895,8.32510435 26.4862105,8.29823478 26.1346316,8.29823478 C22.3451579,8.29823478 19.2622632,11.3548435 19.2622632,15.1116261 C19.2622632,18.867887 22.3451579,21.9239739 26.1346316,21.9239739 C26.4862105,21.9239739 26.8377895,21.8971043 27.1796316,21.8444087 L27.3364737,22.8396261 C26.9427895,22.9004087 26.5388421,22.9311913 26.1346316,22.9311913 C22.7759474,22.9311913 19.9006842,20.8395391 18.7648947,17.9011043 C18.5346316,18.9970174 18.1706842,20.0511913 17.6896316,21.0435391 C19.357,23.1889304 21.9072632,24.6349304 24.8138421,24.8238 L24.7475263,25.8289304 C21.7022632,25.6309304 19.0109474,24.1825826 17.1714737,22.0105826 C16.7406842,22.7441478 16.2422632,23.4364957 15.6841053,24.0787565 C17.2183158,25.6124087 19.1533158,26.7701478 21.3517368,27.3724957 L21.0806842,28.3434522 C18.722,27.6970174 16.6446316,26.4584087 14.9930526,24.8172783 C13.342,26.4584087 11.2638421,27.6972783 8.90542105,28.3434522 L8.90542105,28.3434522 Z" id="Fill-10"></path>
                <polygon id="Fill-12" points="0.605789474 15.680087 29.3852632 15.680087 29.3852632 14.5403478 0.605789474 14.5403478"></polygon>
            </g>
        </g>
    </g>
</svg>